<?xml version="1.0" encoding="UTF-8"?>
<svg xmlns="http://www.w3.org/2000/svg" xmlns:xlink="http://www.w3.org/1999/xlink" viewBox="0 0 24 24" width="24px" height="24px">
<g id="surface33444287">
<path style=" stroke:none;fill-rule:nonzero;fill:rgb(100%,100%,100%);fill-opacity:1;" d="M 12 2 C 6.488281 2 2 6.488281 2 12 C 2 17.511719 6.488281 22 12 22 C 17.511719 22 22 17.511719 22 12 C 22 6.488281 17.511719 2 12 2 Z M 12 4 C 16.429688 4 20 7.570312 20 12 C 20 16.429688 16.429688 20 12 20 C 7.570312 20 4 16.429688 4 12 C 4 7.570312 7.570312 4 12 4 Z M 10.691406 8 C 9.148438 8 7.695312 8.171875 6.328125 8.515625 C 5.984375 8.601562 5.730469 8.855469 5.730469 9.367188 C 5.730469 9.882812 6.070312 10.3125 6.585938 10.222656 C 6.839844 10.222656 6.925781 10.136719 7.097656 10.136719 C 8.210938 9.882812 9.492188 9.710938 10.691406 9.710938 C 13.085938 9.710938 15.5625 10.308594 17.277344 11.25 C 17.53125 11.335938 17.617188 11.421875 17.785156 11.421875 C 18.300781 11.421875 18.644531 11.078125 18.730469 10.566406 C 18.730469 10.140625 18.472656 9.882812 18.214844 9.710938 C 16.078125 8.597656 13.339844 8 10.6875 8 Z M 10.519531 10.992188 C 9.066406 10.992188 8.039062 11.25 7.015625 11.507812 C 6.585938 11.679688 6.414062 11.847656 6.414062 12.277344 C 6.414062 12.621094 6.667969 12.960938 7.097656 12.960938 C 7.269531 12.960938 7.355469 12.960938 7.527344 12.875 C 8.296875 12.703125 9.320312 12.53125 10.433594 12.53125 C 12.65625 12.53125 14.710938 13.046875 16.164062 13.984375 C 16.335938 14.070312 16.507812 14.15625 16.675781 14.15625 C 17.105469 14.15625 17.359375 13.816406 17.449219 13.386719 C 17.449219 13.132812 17.277344 12.875 17.019531 12.703125 C 15.136719 11.59375 12.914062 10.992188 10.519531 10.992188 Z M 10.777344 14.007812 C 9.578125 14.007812 8.464844 14.179688 7.355469 14.433594 C 7.011719 14.433594 6.84375 14.691406 6.84375 15.03125 C 6.84375 15.375 7.097656 15.632812 7.4375 15.632812 C 7.527344 15.632812 7.695312 15.546875 7.867188 15.546875 C 8.722656 15.375 9.75 15.203125 10.691406 15.203125 C 12.398438 15.203125 14.027344 15.632812 15.308594 16.402344 C 15.480469 16.488281 15.566406 16.570312 15.738281 16.570312 C 15.992188 16.570312 16.25 16.402344 16.421875 15.972656 C 16.421875 15.632812 16.25 15.546875 16.078125 15.375 C 14.539062 14.519531 12.742188 14.007812 10.773438 14.007812 Z M 10.777344 14.007812 "/>
</g>
</svg>
